<svg width="400" height="400" viewBox="0 0 400 400" fill="none" xmlns="http://www.w3.org/2000/svg">
  <g clip-path="url(#clip0_1_2)">
    <rect width="400" height="400" fill="#01161E" />
    <path
      d="M262.639 88.9915V236.651C262.639 245.853 261.409 255.055 258.948 264.257C256.594 273.352 252.528 281.645 246.75 289.135C241.079 296.518 233.375 302.456 223.638 306.95C213.901 311.445 201.756 313.692 187.204 313.692C176.397 313.692 165.751 311.98 155.265 308.555C144.886 305.131 135.309 300.156 126.535 293.629L138.894 275.171C148.524 281.163 157.298 285.229 165.216 287.369C173.134 289.402 180.356 290.419 186.883 290.419C202.291 290.419 214.115 285.497 222.354 275.653C230.7 265.809 234.873 252.273 234.873 235.046V111.782H169.389V88.9915H262.639Z"
      fill="#43AA8B" />
  </g>
  <defs>
    <clipPath id="clip0_1_2">
      <rect width="400" height="400" fill="white" />
    </clipPath>
  </defs>
</svg>